M48
;Layer_Color=12967653
;FILE_FORMAT=4:2
METRIC
;TYPE=PLATED
T01F00S00C0.40
T03F00S00C0.80
T04F00S00C1.00
T05F00S00C3.30
;TYPE=NON_PLATED
T06F00S00C1.50
%
T01
X045960Y022011
X045710
X045460
X045210
X045077
X045125Y022237
Y022500
X045250Y022750
X045375Y023000
X045625
X045875
X045963Y023246
X045750Y023250
X045500
X045183Y023286
X045125Y023000
X044708Y022851
Y022776
X044818Y022737
Y022661
X044558Y022806
X044403
X044168Y022776
Y022851
X043994Y022856
X043903Y022854
X043804
Y022744
X043903
X043994Y022737
Y022660
X043978Y022990
Y023076
X043708Y023286
X043686Y023431
Y023801
X044625Y023500
X044875
X045375
X045625
X045875
X045958Y023766
X045750Y023750
X045500
X045953Y022721
X045968Y022311
X043731Y022011
X043497
X043500Y022250
X043625Y022500
X043608Y022854
X043433Y023031
X043500Y023250
X043426Y023440
X043163Y023431
X043156Y023801
X043426
X042878Y023806
X043000Y022750
X042750
X042500
X042000
X041750
X041875Y023000
X041750Y023250
X041250
X041000
X040750
X040500
X040625Y023500
X040875
X041125
X041123Y023775
X040823Y023772
X040447Y023787
X040375Y023500
Y023000
X040625
X040875
X041125
X041375
X041250Y022750
X041000
X041125Y022500
X041375
X041500Y022250
Y022011
X041750
Y022250
X041997Y022011
X042247
X042497
X042747
X042997
X043247
X043386Y022644
X041250Y022250
Y022011
X041000Y022250
X040750Y022031
X040158
Y022581
X040250Y022750
X040447Y024034
X040823Y024033
X041123
X041319Y023862
X041500Y024011
X041558Y024544
Y024751
X041750Y024750
X042000
X042250
X042516Y024834
X042511Y024573
X042125Y024500
X041875
Y025000
X042125
X042250Y025250
X042000
X041750
X041558Y025197
Y024966
X041319Y024831
X041076
X041084Y024554
X041319Y024555
Y025119
X041088Y025119
X041084Y025351
Y025560
X040750Y025561
Y025351
Y025119
Y024907
X040447Y025119
X040444Y025351
Y025561
X040184
Y025351
Y025131
X041428Y025351
Y025561
X041558Y025591
Y025470
X041875Y025500
X042125
X042375
X042625
X042935Y025501
X042828Y025358
X042635Y025162
X042653Y025006
X043035Y024858
X043023Y024714
X043126
X043125Y024000
X043375
X043625
X043616Y025009
X043500Y025250
X043436Y025501
X043625Y025500
X043449Y026256
X043463Y026709
X043572Y027046
X043443Y027236
X043572Y027381
X043625Y027500
X043500Y027750
X043250
X043000
X042750
X042500
X042250
X042000
X041750
X041500
X041250
X041000
X041125Y027500
X041375
X041250Y027250
X041000
X041125Y027000
X041375
X041250Y026750
X041000
X040750
X040875Y027000
X040625
X040375
X040151
X040250Y027750
X041875Y027500
X042326Y027316
X042561Y027321
X042803
X042843Y027156
X042933Y027161
X042915Y027033
X042718Y027038
X042473Y027030
X042217Y027033
X042308Y026618
Y026451
X042228Y026328
X042133Y026241
Y026111
Y025984
X041803Y025996
Y026096
Y026196
X041803Y026311
X041848Y026466
X041983Y026709
X041750Y026750
X041806Y026931
X041375Y026500
X041428Y026311
X041233Y026096
X041123
X041319Y025996
X041808Y025896
X042478Y025854
Y025984
Y026114
Y026241
X042723Y026176
Y026046
Y025919
X042718Y025789
X042908Y026594
X043053Y026583
X042990Y027283
X042625Y027500
X042258Y023848
X044183Y023931
X044118Y024071
X044198Y024156
X044114Y024246
X044284Y024418
Y024543
X044383Y024726
X044288Y024834
Y025120
Y025368
Y025594
X044383Y025696
X044738Y025676
X044741Y025470
X044751Y025182
X044898Y025326
X045213Y025321
X045347Y025182
X045213Y025026
X045146Y024931
X045353Y024866
X045483Y024727
X045347Y024579
X045146Y024651
X045213Y024426
X045250Y024250
X045500
X045750
X045963Y024257
X045875Y024500
X045625
X045750Y024750
X045958Y024763
X045875Y025000
X045625
X045750Y025250
X045963Y025251
X045875Y025500
X045625
X045375
X045374Y025748
X045375Y026000
X045625
X045875
X045963Y026251
X045750Y026250
X045875Y026500
X045625
X045483Y026491
X045375Y026330
X045213Y026416
X045166Y026629
X045021Y026709
X044945Y026706
X044875Y027000
X044848Y027131
X044898Y027222
X044838Y027398
X044875Y027500
X045125
X045250Y027750
X045000
X044738Y027616
X044500Y027750
X044375Y027500
X044472Y027376
Y027106
X044483Y026991
X044284
X044103Y027038
X043841
X043750Y027250
X044000
X044250
X044302Y026707
X044114Y026731
X043948Y026754
X043750Y026750
X043775Y026583
X043821Y026261
X043841Y026046
X044103Y026251
X044483Y026166
X044583Y026046
X044741Y026015
Y026155
X044898Y026341
X045048Y026251
X045133Y025919
X045048Y025789
X045750Y025750
X045968Y025742
X045963Y026750
X045750
X045875Y027000
X045625
X045375
X045125
X045083Y027131
X044683Y027010
X045383Y026698
X045953Y027261
X045875Y024000
X045625
X045375
X045125
X044898Y024036
X044908Y023935
X044678Y023931
X044756Y024145
X044750Y024250
X044583Y024331
Y024431
X044766Y024579
X044991Y024499
X045000Y024250
X044761Y024879
X044483Y025026
X043859Y025151
X043858Y025351
X043829Y025500
X043750Y025250
X043744Y024954
X043750Y024750
X043710Y024554
X045929Y027826
T03
X043443Y027526
X043243
X043043
X043843
T04
X040258Y023142
Y023396
Y023650
Y023904
Y024158
Y024412
Y024666
Y024920
T05
X045568Y022431
X040568Y022431
Y027451
X045568
T06
X042833Y027526
X044053
M30
